<?xml version="1.0" encoding="UTF-8" standalone="no"?>
<svg
   width="68.333366"
   height="68.33329"
   viewBox="0 0 68.333366 68.33329"
   fill="none"
   version="1.1"
   id="svg2"
   xmlns="http://www.w3.org/2000/svg"
   xmlns:svg="http://www.w3.org/2000/svg">
  <defs
     id="defs2">
    <clipPath
       clipPathUnits="userSpaceOnUse"
       id="clipPath2">
      <path
         d="m 35.62157,22.86419 c -0.6671,-1.084 -2.2427,-1.0839 -2.9098,10e-5 l -10.6095,17.2404 c -0.7005,1.1382 0.1184,2.6036 1.4549,2.6036 h 21.219 c 1.3364,0 2.1553,-1.4654 1.4549,-2.6036 z"
         fill="#ffffff"
         id="path3"
         style="display:none" />
      <path
         id="lpe_path-effect3"
         class="powerclip"
         d="M -5,-5 H 73.33337 V 73.33329 H -5 Z m 40.62157,27.86419 c -0.6671,-1.084 -2.2427,-1.0839 -2.9098,10e-5 l -10.6095,17.2404 c -0.7005,1.1382 0.1184,2.6036 1.4549,2.6036 h 21.219 c 1.3364,0 2.1553,-1.4654 1.4549,-2.6036 z" />
    </clipPath>
  </defs>
  <path
     d="m 34.16667,68.33329 c 18.8697,0 34.1667,-15.2969 34.1667,-34.1666 C 68.33337,15.29689 53.03637,0 34.16667,0 15.29697,0 0,15.29689 0,34.16669 c 0,18.8697 15.29697,34.1666 34.16667,34.1666 z"
     fill="#00dda3"
     id="path1"
     clip-path="url(#clipPath2)" />
</svg>
