<?xml version="1.0" encoding="UTF-8" standalone="no"?>
<svg
   width="621.5"
   height="316.87726"
   viewBox="0 0 621.5 316.87726"
   fill="none"
   version="1.1"
   id="svg11"
   xmlns="http://www.w3.org/2000/svg"
   xmlns:svg="http://www.w3.org/2000/svg">
  <defs
     id="defs11" />
  <path
     d="m 14.8848,310.68026 c 0.2343,3.78 3.3838,6.197 8.0713,6.197 5.0097,0 8.1445,-2.534 8.1445,-6.577 0,-3.179 -1.7871,-4.937 -6.1231,-5.948 l -2.3291,-0.571 c -2.7539,-0.645 -3.8672,-1.509 -3.8672,-3.018 0,-1.904 1.7286,-3.149 4.3213,-3.149 2.461,0 4.1602,1.216 4.4678,3.164 h 3.1934 c -0.1905,-3.56 -3.3252,-6.064 -7.6172,-6.064 -4.6143,0 -7.6904,2.504 -7.6904,6.269 0,3.106 1.7431,4.951 5.5664,5.845 l 2.7246,0.659 c 2.7978,0.659 4.0283,1.626 4.0283,3.237 0,1.875 -1.9336,3.238 -4.5703,3.238 -2.8272,0 -4.7901,-1.275 -5.0684,-3.282 z"
     fill="#33404f"
     id="path1" />
  <path
     d="m 130.527,316.36426 v -21.138 h -3.838 l -6.738,16.055 h -0.249 l -6.724,-16.055 h -3.838 v 21.138 h 3.047 v -15.264 h 0.205 l 6.196,14.649 h 2.49 l 6.197,-14.649 h 0.205 v 15.264 z"
     fill="#33404f"
     id="path2" />
  <path
     d="m 218.307,316.36426 v -18.149 h 6.636 v -2.989 h -16.567 v 2.989 h 6.65 v 18.149 z"
     fill="#33404f"
     id="path3" />
  <path
     d="m 313.883,297.85126 h 0.205 l 4.541,15.513 h 3.091 l 5.713,-21.138 h -3.413 l -3.868,16.187 h -0.205 l -4.438,-16.187 h -3.047 l -4.409,16.187 h -0.205 l -3.882,-16.187 h -3.413 l 5.698,21.138 h 3.105 z"
     fill="#33404f"
     id="path4" />
  <path
     d="m 412.974,316.36426 v -18.149 h 6.636 v -2.989 h -16.568 v 2.989 h 6.651 v 18.149 z"
     fill="#33404f"
     id="path5" />
  <path
     d="m 504.869,316.36426 v -8.76 h 9.082 v -2.9 h -9.082 v -6.489 h 9.917 v -2.989 h -13.198 v 21.138 z"
     fill="#33404f"
     id="path6" />
  <path
     d="m 596.885,310.68026 c 0.234,3.78 3.384,6.197 8.071,6.197 5.01,0 8.145,-2.534 8.145,-6.577 0,-3.179 -1.788,-4.937 -6.123,-5.948 l -2.33,-0.571 c -2.753,-0.645 -3.867,-1.509 -3.867,-3.018 0,-1.904 1.729,-3.149 4.322,-3.149 2.46,0 4.16,1.216 4.467,3.164 h 3.194 c -0.191,-3.56 -3.326,-6.064 -7.618,-6.064 -4.614,0 -7.69,2.504 -7.69,6.269 0,3.106 1.743,4.951 5.566,5.845 l 2.725,0.659 c 2.798,0.659 4.028,1.626 4.028,3.237 0,1.875 -1.933,3.238 -4.57,3.238 -2.827,0 -4.79,-1.275 -5.068,-3.282 z"
     fill="#33404f"
     id="path7" />
  <path
     d="m 3,220.66726 c 11.8333,-44.166 53.2,-116.9 124,-54.5 88.5,78 118.5,14 139,-32.5 20.5,-46.4998 75.5,-121.4998 136.5,-37 61,84.5 103.5,64 128,20.5 24.5,-43.4998 61,-29.9998 91,-20.5"
     stroke="#33404f"
     stroke-width="3"
     stroke-linecap="round"
     stroke-dasharray="10, 10"
     id="path8" />
  <path
     d="m 1.5,221.86426 c 7.6667,-55.833 43.2,-153.1 124,-95.5 101,72 146,57 169,23 23,-34 70.5,-106.9999 140,-60.9999 69.5,45.9999 87,7.4999 103.5,-18.0001 16.5,-25.5 31.5,-34 75,-8"
     stroke="#00dda3"
     stroke-width="3"
     stroke-linecap="round"
     stroke-dasharray="10, 10"
     id="path9" />
  <circle
     cx="340"
     cy="59.364262"
     r="13"
     fill="#33404f"
     id="circle9" />
  <circle
     cx="567"
     cy="47.364262"
     r="13"
     fill="#00dda3"
     id="circle10" />
  <path
     d="m 304.477,36.35646 v -1.919 c 4.292,-0.3662 6.767,-2.6074 6.767,-6.1962 0,-3.0323 -1.728,-4.8926 -5.405,-5.7862 l -1.362,-0.3076 v -6.3135 c 1.933,0.2344 3.252,1.4942 3.31,3.1055 h 3.062 c -0.088,-3.2666 -2.578,-5.5811 -6.372,-5.918 v -2.0215 h -2.007 v 2.0215 c -3.955,0.3662 -6.358,2.6074 -6.358,5.9912 0,2.8565 1.787,4.8194 5.054,5.6543 l 1.304,0.3369 v 6.6797 c -2.183,-0.249 -3.589,-1.4648 -3.736,-3.208 h -3.105 c 0.015,3.3985 2.651,5.6983 6.841,5.9766 v 1.9043 z m 3.647,-7.7783 c 0,1.8603 -1.333,3.0029 -3.647,3.1347 v -6.3281 c 2.49,0.4981 3.647,1.5088 3.647,3.1934 z m -8.877,-9.8291 c 0,-1.5967 1.348,-2.8272 3.223,-2.9297 v 5.9033 c -2.11,-0.4248 -3.223,-1.4648 -3.223,-2.9736 z m 21.504,15.6152 h 3.281 v -21.1377 h -3.266 l -5.567,3.9258 v 3.3545 l 5.303,-3.75 h 0.249 z m 10.327,0 h 3.443 l 9.199,-18.1641 v -2.9736 h -14.4 v 2.915 h 11.075 v 0.2344 z m 24.653,0 h 3.165 v -4.0869 h 2.915 v -2.9297 h -2.915 v -14.1211 h -4.673 c -3.765,5.6397 -6.914,10.5469 -8.804,14.0039 v 3.0469 h 10.312 z m -7.163,-7.1484 c 2.491,-4.3213 4.922,-8.0713 7.017,-11.1036 h 0.19 v 11.3086 h -7.207 z"
     fill="#33404f"
     id="path10" />
  <path
     d="m 540.424,25.35646 v -1.919 c 4.292,-0.3662 6.767,-2.6074 6.767,-6.1962 0,-3.0323 -1.728,-4.8926 -5.405,-5.7862 l -1.362,-0.3076 v -6.3135 c 1.933,0.2344 3.252,1.4942 3.31,3.1055 h 3.062 C 546.708,4.67286 544.218,2.3584 540.424,2.02149 V 0 h -2.007 v 2.02149 c -3.955,0.36621 -6.357,2.60737 -6.357,5.99117 0,2.8565 1.787,4.8194 5.053,5.6543 l 1.304,0.3369 v 6.6797 c -2.183,-0.249 -3.589,-1.4648 -3.735,-3.208 h -3.106 c 0.015,3.3985 2.652,5.6983 6.841,5.9766 v 1.9043 z m 3.647,-7.7783 c 0,1.8603 -1.333,3.0029 -3.647,3.1347 v -6.3281 c 2.49,0.4981 3.647,1.5088 3.647,3.1934 z m -8.877,-9.8291 c 0,-1.5967 1.348,-2.8272 3.223,-2.9297 v 5.9033 c -2.109,-0.4248 -3.223,-1.4648 -3.223,-2.9736 z m 26.162,15.6152 h 3.165 v -4.0869 h 2.915 v -2.9297 h -2.915 V 2.22656 h -4.673 c -3.765,5.6397 -6.914,10.5469 -8.804,14.0039 v 3.0469 h 10.312 z m -7.163,-7.1484 c 2.491,-4.3213 4.922,-8.0713 7.017,-11.1036 h 0.19 v 11.3086 h -7.207 z m 24.566,7.6611 c 4.555,0 7.646,-2.9736 7.646,-7.3535 0,-4.1602 -2.827,-7.0899 -6.841,-7.0899 -2.006,0 -3.501,0.6739 -4.467,1.919 h -0.249 l 0.556,-6.1963 h 9.771 v -2.9297 h -12.334 l -1.113,12.0996 h 3.002 c 0.821,-1.3623 2.286,-2.168 4.102,-2.168 2.578,0 4.365,1.8018 4.365,4.4532 0,2.6367 -1.772,4.3799 -4.409,4.3799 -2.314,0 -4.028,-1.3624 -4.277,-3.4131 h -3.12 c 0.19,3.706 3.164,6.2988 7.368,6.2988 z m 16.67,-0.5127 h 3.281 V 2.22656 h -3.267 l -5.566,3.9258 v 3.3545 l 5.303,-3.75 h 0.249 z"
     fill="#00dda3"
     id="path11" />
</svg>
